<svg xmlns="http://www.w3.org/2000/svg" viewBox="0 0 1000 500" preserveAspectRatio="xMidYMid meet">
  <!-- Equirectangular World Map - Simplified continent outlines -->
  <!-- Coordinates: x = (longitude + 180) / 360 * 1000, y = (90 - latitude) / 180 * 500 -->

  <defs>
    <!-- Gradient for land masses -->
    <linearGradient id="landGradient" x1="0%" y1="0%" x2="100%" y2="100%">
      <stop offset="0%" style="stop-color:currentColor;stop-opacity:0.15"/>
      <stop offset="100%" style="stop-color:currentColor;stop-opacity:0.25"/>
    </linearGradient>
  </defs>

  <g fill="url(#landGradient)" stroke="currentColor" stroke-width="0.5" stroke-opacity="0.3">

    <!-- North America -->
    <path d="
      M 130,85
      Q 145,75 165,72
      Q 185,68 205,72
      Q 225,78 240,85
      Q 255,75 275,78
      Q 290,82 300,95
      Q 295,105 285,115
      Q 275,125 260,135
      Q 250,145 245,160
      Q 240,175 230,185
      Q 220,195 205,200
      Q 195,205 185,200
      Q 175,195 168,185
      Q 160,175 155,165
      Q 148,155 140,150
      Q 130,145 125,135
      Q 120,125 118,115
      Q 115,105 120,95
      Q 125,88 130,85
      Z
    "/>

    <!-- Greenland -->
    <path d="
      M 310,55
      Q 330,50 350,55
      Q 365,62 370,75
      Q 372,88 365,98
      Q 355,105 340,102
      Q 325,98 315,88
      Q 308,78 308,68
      Q 308,60 310,55
      Z
    "/>

    <!-- Central America & Caribbean -->
    <path d="
      M 205,200
      Q 215,205 225,215
      Q 230,225 235,235
      Q 238,242 240,248
      Q 235,252 228,250
      Q 220,248 215,242
      Q 208,235 205,225
      Q 202,215 205,200
      Z
    "/>

    <!-- South America -->
    <path d="
      M 240,255
      Q 255,252 268,260
      Q 280,270 288,285
      Q 295,300 298,320
      Q 300,340 295,360
      Q 288,380 278,395
      Q 268,408 255,415
      Q 242,420 232,412
      Q 225,402 222,385
      Q 220,365 222,345
      Q 225,325 228,305
      Q 232,285 238,268
      Q 240,260 240,255
      Z
    "/>

    <!-- Europe -->
    <path d="
      M 470,75
      Q 485,70 500,72
      Q 515,75 528,82
      Q 540,90 545,102
      Q 548,115 542,125
      Q 535,132 522,135
      Q 508,138 495,135
      Q 482,132 472,125
      Q 462,118 458,108
      Q 455,98 458,88
      Q 462,80 470,75
      Z
    "/>

    <!-- British Isles -->
    <path d="
      M 458,85
      Q 462,80 468,82
      Q 472,86 470,92
      Q 466,96 460,94
      Q 456,90 458,85
      Z
    "/>

    <!-- Scandinavia -->
    <path d="
      M 495,55
      Q 505,48 518,50
      Q 530,54 538,65
      Q 542,75 538,85
      Q 532,92 520,90
      Q 508,88 500,80
      Q 492,72 492,62
      Q 493,57 495,55
      Z
    "/>

    <!-- Africa -->
    <path d="
      M 465,145
      Q 485,140 505,145
      Q 525,152 540,165
      Q 555,180 562,200
      Q 568,220 568,245
      Q 565,270 558,295
      Q 548,318 535,338
      Q 520,355 502,365
      Q 485,372 468,368
      Q 452,362 442,348
      Q 435,335 435,315
      Q 438,295 445,275
      Q 452,255 458,235
      Q 462,215 463,195
      Q 462,175 460,160
      Q 460,150 465,145
      Z
    "/>

    <!-- Madagascar -->
    <path d="
      M 575,320
      Q 582,315 588,322
      Q 592,335 588,350
      Q 582,362 575,358
      Q 570,348 572,335
      Q 573,325 575,320
      Z
    "/>

    <!-- Middle East -->
    <path d="
      M 555,145
      Q 575,140 595,145
      Q 610,152 618,165
      Q 622,178 615,188
      Q 605,195 590,192
      Q 575,188 565,178
      Q 555,168 555,155
      Q 555,148 555,145
      Z
    "/>

    <!-- Russia / Northern Asia -->
    <path d="
      M 545,45
      Q 580,38 620,42
      Q 660,48 700,55
      Q 740,62 780,68
      Q 820,72 855,75
      Q 875,78 880,88
      Q 882,100 870,110
      Q 855,118 830,120
      Q 800,122 765,118
      Q 730,115 695,108
      Q 660,102 625,98
      Q 590,95 560,95
      Q 545,95 540,88
      Q 538,80 542,70
      Q 544,55 545,45
      Z
    "/>

    <!-- Central/South Asia -->
    <path d="
      M 620,105
      Q 650,100 680,108
      Q 710,118 735,135
      Q 755,150 765,170
      Q 772,190 768,210
      Q 762,225 745,232
      Q 725,238 702,235
      Q 680,230 660,218
      Q 642,205 630,188
      Q 620,170 618,150
      Q 618,130 620,115
      Q 620,108 620,105
      Z
    "/>

    <!-- India -->
    <path d="
      M 665,175
      Q 680,170 695,178
      Q 708,188 715,205
      Q 720,222 715,240
      Q 708,255 695,262
      Q 680,268 668,260
      Q 658,250 655,235
      Q 653,218 658,202
      Q 662,188 665,175
      Z
    "/>

    <!-- Southeast Asia -->
    <path d="
      M 735,195
      Q 752,190 768,198
      Q 782,208 788,225
      Q 792,242 785,258
      Q 775,272 758,275
      Q 742,276 730,265
      Q 720,252 722,235
      Q 725,218 732,205
      Q 735,198 735,195
      Z
    "/>

    <!-- China / East Asia -->
    <path d="
      M 770,115
      Q 800,108 830,115
      Q 858,125 875,145
      Q 888,165 885,188
      Q 880,208 862,220
      Q 842,230 818,228
      Q 795,225 775,212
      Q 758,198 755,178
      Q 755,158 765,140
      Q 768,125 770,115
      Z
    "/>

    <!-- Korea -->
    <path d="
      M 868,145
      Q 875,140 882,145
      Q 888,155 885,168
      Q 880,178 872,175
      Q 865,170 866,158
      Q 867,148 868,145
      Z
    "/>

    <!-- Japan -->
    <path d="
      M 895,135
      Q 905,130 912,138
      Q 918,150 915,165
      Q 910,178 900,182
      Q 890,185 885,175
      Q 882,165 885,152
      Q 890,140 895,135
      Z
    "/>

    <!-- Philippines / Indonesia -->
    <path d="
      M 820,235
      Q 835,230 848,238
      Q 858,248 855,262
      Q 850,275 835,278
      Q 820,280 810,270
      Q 802,258 808,245
      Q 815,238 820,235
      Z
    "/>

    <!-- Indonesia continued -->
    <path d="
      M 785,280
      Q 805,275 825,282
      Q 845,290 858,305
      Q 868,320 862,335
      Q 852,345 832,345
      Q 812,342 795,332
      Q 780,320 778,305
      Q 778,290 785,280
      Z
    "/>

    <!-- Papua New Guinea -->
    <path d="
      M 878,285
      Q 895,280 908,290
      Q 918,302 912,318
      Q 902,330 885,328
      Q 870,325 868,310
      Q 868,295 878,285
      Z
    "/>

    <!-- Australia -->
    <path d="
      M 815,340
      Q 845,332 878,338
      Q 910,348 932,368
      Q 948,388 945,412
      Q 938,435 912,448
      Q 885,458 855,455
      Q 825,450 802,435
      Q 782,418 778,395
      Q 778,372 792,355
      Q 805,342 815,340
      Z
    "/>

    <!-- Tasmania -->
    <path d="
      M 880,455
      Q 892,452 898,462
      Q 902,472 895,480
      Q 885,485 878,478
      Q 872,468 878,458
      Q 880,455 880,455
      Z
    "/>

    <!-- New Zealand -->
    <path d="
      M 945,408
      Q 955,402 962,412
      Q 968,425 965,440
      Q 960,452 950,455
      Q 940,456 935,445
      Q 932,432 938,418
      Q 942,410 945,408
      Z
    "/>
    <path d="
      M 952,458
      Q 960,455 965,462
      Q 968,472 962,480
      Q 955,485 950,478
      Q 946,470 950,462
      Q 952,458 952,458
      Z
    "/>

    <!-- Iceland -->
    <path d="
      M 415,62
      Q 425,58 435,62
      Q 442,68 440,78
      Q 435,85 425,84
      Q 415,82 412,74
      Q 412,66 415,62
      Z
    "/>

    <!-- Sri Lanka -->
    <path d="
      M 700,252
      Q 708,248 714,255
      Q 718,265 712,275
      Q 704,280 698,272
      Q 694,262 698,254
      Q 700,252 700,252
      Z
    "/>

    <!-- Taiwan -->
    <path d="
      M 872,195
      Q 878,190 884,195
      Q 888,205 884,215
      Q 878,222 872,218
      Q 868,210 870,200
      Q 872,195 872,195
      Z
    "/>

  </g>

  <!-- Equator line (subtle) -->
  <line x1="0" y1="250" x2="1000" y2="250" stroke="currentColor" stroke-opacity="0.1" stroke-width="0.5" stroke-dasharray="4,4"/>

  <!-- Prime Meridian (subtle) -->
  <line x1="500" y1="0" x2="500" y2="500" stroke="currentColor" stroke-opacity="0.08" stroke-width="0.5" stroke-dasharray="4,4"/>

</svg>
